<svg width="21" height="20" viewBox="0 0 21 20" fill="none" xmlns="http://www.w3.org/2000/svg">
<path fill-rule="evenodd" clip-rule="evenodd" d="M17.2308 14.08C16.4035 14.08 15.6634 14.38 15.0974 14.85L7.33665 10.7C7.39107 10.47 7.43461 10.24 7.43461 10C7.43461 9.76 7.39107 9.53 7.33665 9.3L15.0103 5.19C15.5981 5.69 16.3709 6 17.2308 6C19.0376 6 20.4961 4.66 20.4961 3C20.4961 1.34 19.0376 0 17.2308 0C15.4239 0 13.9654 1.34 13.9654 3C13.9654 3.24 14.0089 3.47 14.0633 3.7L6.38969 7.81C5.80192 7.31 5.02911 7 4.16922 7C2.36238 7 0.903839 8.34 0.903839 10C0.903839 11.66 2.36238 13 4.16922 13C5.02911 13 5.80192 12.69 6.38969 12.19L14.1395 16.35C14.0851 16.56 14.0525 16.78 14.0525 17C14.0525 18.61 15.4783 19.92 17.2308 19.92C18.9832 19.92 20.4091 18.61 20.4091 17C20.4091 15.39 18.9832 14.08 17.2308 14.08Z" fill="black"/>
</svg>
